<svg width="303" height="45" viewBox="0 0 303 45" fill="none" xmlns="http://www.w3.org/2000/svg">
<path d="M0.899902 36V3H7.2499V36H0.899902ZM4.9999 36V30.8H25.5499V36H4.9999ZM4.9999 21.65V16.85H23.0999V21.65H4.9999ZM4.9999 8.2V3H25.4499V8.2H4.9999Z" fill="#6161B3"/>
<path d="M31.0675 36V0.5H37.2675V36H31.0675Z" fill="#6161B3"/>
<path d="M54.4987 36.65C52.7321 36.65 51.1321 36.4667 49.6987 36.1C48.2987 35.7667 47.0987 35.2833 46.0987 34.65C45.0987 33.9833 44.2987 33.2 43.6987 32.3C43.0987 31.3667 42.7321 30.3333 42.5987 29.2L47.5487 27.35C47.6154 28.2167 47.9487 29 48.5487 29.7C49.1487 30.3667 49.9821 30.9 51.0487 31.3C52.1154 31.7 53.3987 31.9 54.8987 31.9C56.5654 31.9 57.8487 31.65 58.7487 31.15C59.6821 30.6167 60.1487 29.8667 60.1487 28.9C60.1487 28.2 59.8987 27.65 59.3987 27.25C58.8987 26.8167 58.1654 26.4667 57.1987 26.2C56.2654 25.9 55.1321 25.6167 53.7987 25.35C52.5654 25.0833 51.3154 24.7833 50.0487 24.45C48.8154 24.0833 47.6654 23.6167 46.5987 23.05C45.5654 22.45 44.7154 21.6833 44.0487 20.75C43.4154 19.7833 43.0987 18.5667 43.0987 17.1C43.0987 15.5 43.5154 14.1167 44.3487 12.95C45.2154 11.7833 46.4487 10.8667 48.0487 10.2C49.6821 9.53333 51.6487 9.2 53.9487 9.2C56.1154 9.2 57.9821 9.5 59.5487 10.1C61.1487 10.7 62.4487 11.5667 63.4487 12.7C64.4487 13.8 65.0821 15.1167 65.3487 16.65L60.1487 18.3C60.0487 17.3667 59.7321 16.5833 59.1987 15.95C58.6654 15.2833 57.9487 14.7833 57.0487 14.45C56.1487 14.1167 55.0987 13.95 53.8987 13.95C52.3654 13.95 51.1654 14.2167 50.2987 14.75C49.4321 15.2833 48.9987 16 48.9987 16.9C48.9987 17.6333 49.2654 18.2167 49.7987 18.65C50.3654 19.0833 51.1321 19.4333 52.0987 19.7C53.0987 19.9667 54.2321 20.2333 55.4987 20.5C56.8321 20.7667 58.1154 21.0833 59.3487 21.45C60.6154 21.7833 61.7487 22.2333 62.7487 22.8C63.7487 23.3667 64.5487 24.1167 65.1487 25.05C65.7487 25.95 66.0487 27.1167 66.0487 28.55C66.0487 30.2833 65.5821 31.7667 64.6487 33C63.7154 34.2 62.3821 35.1167 60.6487 35.75C58.9487 36.35 56.8987 36.65 54.4987 36.65Z" fill="#6161B3"/>
<path d="M77.5472 36.65C76.1138 36.65 74.8305 36.3833 73.6972 35.85C72.5638 35.2833 71.6638 34.45 70.9972 33.35C70.3638 32.25 70.0472 30.8833 70.0472 29.25C70.0472 27.8833 70.2972 26.7167 70.7972 25.75C71.3305 24.7833 72.1138 24 73.1472 23.4C74.1805 22.7667 75.4638 22.25 76.9972 21.85C78.5305 21.4167 80.3305 21.05 82.3972 20.75C83.5305 20.5833 84.4472 20.4167 85.1472 20.25C85.8805 20.0833 86.4138 19.8333 86.7472 19.5C87.0805 19.1333 87.2472 18.6 87.2472 17.9C87.2472 16.8667 86.8805 15.9833 86.1472 15.25C85.4472 14.4833 84.2972 14.1 82.6972 14.1C81.7305 14.1 80.7972 14.2667 79.8972 14.6C79.0305 14.9333 78.2805 15.4667 77.6472 16.2C77.0138 16.9 76.5805 17.8333 76.3472 19L70.6972 17.25C71.0638 15.9167 71.5972 14.7667 72.2972 13.8C72.9972 12.8 73.8638 11.95 74.8972 11.25C75.9305 10.55 77.1138 10.0333 78.4472 9.7C79.7805 9.36667 81.2472 9.2 82.8472 9.2C85.2805 9.2 87.2805 9.6 88.8472 10.4C90.4138 11.1667 91.5805 12.3833 92.3472 14.05C93.1138 15.6833 93.4972 17.8 93.4972 20.4V25.3C93.4972 26.4333 93.5138 27.6167 93.5472 28.85C93.6138 30.05 93.6805 31.2667 93.7472 32.5C93.8472 33.7 93.9638 34.8667 94.0972 36H88.4472C88.3138 35.0667 88.1972 34.0667 88.0972 33C87.9972 31.9333 87.9138 30.85 87.8472 29.75H87.0472C86.5805 31.0167 85.9138 32.1833 85.0472 33.25C84.1805 34.2833 83.1138 35.1167 81.8472 35.75C80.6138 36.35 79.1805 36.65 77.5472 36.65ZM80.0472 32C80.7138 32 81.3805 31.8833 82.0472 31.65C82.7472 31.4167 83.4305 31.0667 84.0972 30.6C84.7638 30.1333 85.3805 29.5667 85.9472 28.9C86.5138 28.2 86.9972 27.3833 87.3972 26.45L87.2972 22L88.4972 22.2C87.9305 22.6667 87.2305 23.0333 86.3972 23.3C85.5638 23.5667 84.6805 23.7667 83.7472 23.9C82.8472 24.0333 81.9305 24.2 80.9972 24.4C80.0972 24.5667 79.2805 24.8 78.5472 25.1C77.8138 25.3667 77.2305 25.7667 76.7972 26.3C76.3638 26.8 76.1472 27.5 76.1472 28.4C76.1472 29.5333 76.5138 30.4167 77.2472 31.05C77.9805 31.6833 78.9138 32 80.0472 32Z" fill="#6161B3"/>
<path d="M112.57 36V3H118.87V36H112.57ZM115.42 23.05V17.8H134.57V23.05H115.42ZM115.42 8.45V3H136.57V8.45H115.42Z" fill="#6161B3"/>
<path d="M140.638 36V9.85H145.938L145.838 18.85H146.738C147.038 16.7167 147.504 14.95 148.138 13.55C148.771 12.1167 149.654 11.05 150.788 10.35C151.921 9.61667 153.321 9.25 154.988 9.25C155.321 9.25 155.671 9.26667 156.038 9.3C156.438 9.33333 156.871 9.41667 157.338 9.55L157.088 16.2C156.554 16 156.004 15.8667 155.438 15.8C154.904 15.7 154.404 15.65 153.938 15.65C152.638 15.65 151.504 15.9833 150.538 16.65C149.604 17.3167 148.838 18.2667 148.238 19.5C147.671 20.7 147.238 22.1333 146.938 23.8V36H140.638Z" fill="#6161B3"/>
<path d="M173.287 36.65C171.187 36.65 169.304 36.35 167.637 35.75C166.004 35.15 164.621 34.2833 163.487 33.15C162.354 31.9833 161.487 30.5833 160.887 28.95C160.287 27.3167 159.987 25.4667 159.987 23.4C159.987 21.3333 160.271 19.4333 160.837 17.7C161.437 15.9667 162.287 14.4667 163.387 13.2C164.487 11.9333 165.821 10.95 167.387 10.25C168.987 9.55 170.804 9.2 172.837 9.2C174.737 9.2 176.437 9.51667 177.937 10.15C179.437 10.7833 180.704 11.7333 181.737 13C182.771 14.2333 183.537 15.7833 184.037 17.65C184.537 19.4833 184.704 21.6167 184.537 24.05L164.087 24.2V20.55L180.887 20.4L178.687 22.45C178.887 20.55 178.737 19 178.237 17.8C177.737 16.5667 177.021 15.6667 176.087 15.1C175.154 14.5 174.087 14.2 172.887 14.2C171.521 14.2 170.321 14.5667 169.287 15.3C168.254 16 167.454 17.0333 166.887 18.4C166.354 19.7333 166.087 21.3667 166.087 23.3C166.087 26.2 166.721 28.3667 167.987 29.8C169.287 31.2333 171.054 31.95 173.287 31.95C174.287 31.95 175.121 31.8333 175.787 31.6C176.487 31.3333 177.071 31 177.537 30.6C178.004 30.1667 178.371 29.6833 178.637 29.15C178.937 28.6167 179.171 28.05 179.337 27.45L184.837 28.7C184.571 29.9333 184.137 31.0333 183.537 32C182.937 32.9667 182.154 33.8 181.187 34.5C180.254 35.2 179.137 35.7333 177.837 36.1C176.537 36.4667 175.021 36.65 173.287 36.65Z" fill="#6161B3"/>
<path d="M190.296 44.3V9.85H195.596L195.546 16.95L196.396 17C196.729 15.3333 197.263 13.9167 197.996 12.75C198.763 11.5833 199.729 10.7 200.896 10.1C202.063 9.5 203.446 9.2 205.046 9.2C207.379 9.2 209.363 9.78333 210.996 10.95C212.629 12.0833 213.863 13.7 214.696 15.8C215.563 17.8667 215.996 20.2833 215.996 23.05C215.996 25.65 215.596 27.9833 214.796 30.05C214.029 32.0833 212.846 33.7 211.246 34.9C209.679 36.0667 207.729 36.65 205.396 36.65C203.696 36.65 202.263 36.3167 201.096 35.65C199.929 34.9833 198.979 34.0667 198.246 32.9C197.513 31.7333 196.913 30.3833 196.446 28.85H195.546C195.746 29.75 195.913 30.6833 196.046 31.65C196.213 32.5833 196.346 33.5167 196.446 34.45C196.546 35.35 196.596 36.2167 196.596 37.05V44.3H190.296ZM203.346 31.5C204.646 31.5 205.746 31.15 206.646 30.45C207.546 29.7167 208.229 28.7167 208.696 27.45C209.163 26.15 209.396 24.6667 209.396 23C209.396 21.2667 209.146 19.7667 208.646 18.5C208.179 17.2333 207.479 16.25 206.546 15.55C205.613 14.85 204.513 14.5 203.246 14.5C202.146 14.5 201.179 14.75 200.346 15.25C199.513 15.75 198.813 16.4167 198.246 17.25C197.679 18.05 197.263 18.9167 196.996 19.85C196.729 20.7833 196.596 21.7 196.596 22.6V23.45C196.596 24.1167 196.679 24.8167 196.846 25.55C197.046 26.25 197.329 26.9667 197.696 27.7C198.063 28.4 198.513 29.05 199.046 29.65C199.579 30.2167 200.213 30.6667 200.946 31C201.679 31.3333 202.479 31.5 203.346 31.5Z" fill="#6161B3"/>
<path d="M221.692 44.3V9.85H226.992L226.942 16.95L227.792 17C228.126 15.3333 228.659 13.9167 229.392 12.75C230.159 11.5833 231.126 10.7 232.292 10.1C233.459 9.5 234.842 9.2 236.442 9.2C238.776 9.2 240.759 9.78333 242.392 10.95C244.026 12.0833 245.259 13.7 246.092 15.8C246.959 17.8667 247.392 20.2833 247.392 23.05C247.392 25.65 246.992 27.9833 246.192 30.05C245.426 32.0833 244.242 33.7 242.642 34.9C241.076 36.0667 239.126 36.65 236.792 36.65C235.092 36.65 233.659 36.3167 232.492 35.65C231.326 34.9833 230.376 34.0667 229.642 32.9C228.909 31.7333 228.309 30.3833 227.842 28.85H226.942C227.142 29.75 227.309 30.6833 227.442 31.65C227.609 32.5833 227.742 33.5167 227.842 34.45C227.942 35.35 227.992 36.2167 227.992 37.05V44.3H221.692ZM234.742 31.5C236.042 31.5 237.142 31.15 238.042 30.45C238.942 29.7167 239.626 28.7167 240.092 27.45C240.559 26.15 240.792 24.6667 240.792 23C240.792 21.2667 240.542 19.7667 240.042 18.5C239.576 17.2333 238.876 16.25 237.942 15.55C237.009 14.85 235.909 14.5 234.642 14.5C233.542 14.5 232.576 14.75 231.742 15.25C230.909 15.75 230.209 16.4167 229.642 17.25C229.076 18.05 228.659 18.9167 228.392 19.85C228.126 20.7833 227.992 21.7 227.992 22.6V23.45C227.992 24.1167 228.076 24.8167 228.242 25.55C228.442 26.25 228.726 26.9667 229.092 27.7C229.459 28.4 229.909 29.05 230.442 29.65C230.976 30.2167 231.609 30.6667 232.342 31C233.076 31.3333 233.876 31.5 234.742 31.5Z" fill="#6161B3"/>
<path d="M259.188 36.65C257.754 36.65 256.471 36.3833 255.338 35.85C254.204 35.2833 253.304 34.45 252.638 33.35C252.004 32.25 251.688 30.8833 251.688 29.25C251.688 27.8833 251.938 26.7167 252.438 25.75C252.971 24.7833 253.754 24 254.788 23.4C255.821 22.7667 257.104 22.25 258.638 21.85C260.171 21.4167 261.971 21.05 264.038 20.75C265.171 20.5833 266.088 20.4167 266.788 20.25C267.521 20.0833 268.054 19.8333 268.388 19.5C268.721 19.1333 268.888 18.6 268.888 17.9C268.888 16.8667 268.521 15.9833 267.788 15.25C267.088 14.4833 265.938 14.1 264.338 14.1C263.371 14.1 262.438 14.2667 261.538 14.6C260.671 14.9333 259.921 15.4667 259.288 16.2C258.654 16.9 258.221 17.8333 257.988 19L252.338 17.25C252.704 15.9167 253.238 14.7667 253.938 13.8C254.638 12.8 255.504 11.95 256.538 11.25C257.571 10.55 258.754 10.0333 260.088 9.7C261.421 9.36667 262.888 9.2 264.488 9.2C266.921 9.2 268.921 9.6 270.488 10.4C272.054 11.1667 273.221 12.3833 273.988 14.05C274.754 15.6833 275.138 17.8 275.138 20.4V25.3C275.138 26.4333 275.154 27.6167 275.188 28.85C275.254 30.05 275.321 31.2667 275.388 32.5C275.488 33.7 275.604 34.8667 275.738 36H270.088C269.954 35.0667 269.838 34.0667 269.738 33C269.638 31.9333 269.554 30.85 269.488 29.75H268.688C268.221 31.0167 267.554 32.1833 266.688 33.25C265.821 34.2833 264.754 35.1167 263.488 35.75C262.254 36.35 260.821 36.65 259.188 36.65ZM261.688 32C262.354 32 263.021 31.8833 263.688 31.65C264.388 31.4167 265.071 31.0667 265.738 30.6C266.404 30.1333 267.021 29.5667 267.588 28.9C268.154 28.2 268.638 27.3833 269.038 26.45L268.938 22L270.138 22.2C269.571 22.6667 268.871 23.0333 268.038 23.3C267.204 23.5667 266.321 23.7667 265.388 23.9C264.488 24.0333 263.571 24.2 262.638 24.4C261.738 24.5667 260.921 24.8 260.188 25.1C259.454 25.3667 258.871 25.7667 258.438 26.3C258.004 26.8 257.788 27.5 257.788 28.4C257.788 29.5333 258.154 30.4167 258.888 31.05C259.621 31.6833 260.554 32 261.688 32Z" fill="#6161B3"/>
<path d="M280.195 36V30.6L294.095 15.7V15H280.395V9.85H302.195V15.15L288.095 30.15V30.8H302.295V36H280.195Z" fill="#6161B3"/>
</svg>
