<svg width="339" height="339" viewBox="0 0 339 339" fill="none" xmlns="http://www.w3.org/2000/svg">
<path d="M338.16 124.067C337.719 122.301 335.955 120.534 333.75 120.976L250.85 122.301L293.623 51.2134C294.505 49.4472 294.505 47.2395 292.741 45.9149C291.418 44.5903 289.214 44.1488 287.45 45.0319L216.455 87.8608L217.778 4.8521C217.778 2.64442 216.455 0.878273 214.691 0.436737C212.928 -0.00479876 210.723 0.878273 209.841 2.64442L169.713 75.0563L129.586 2.64442C128.704 0.878273 126.499 -0.00479876 124.736 0.436737C122.972 0.878273 121.649 2.64442 121.649 4.8521L122.972 87.8608L51.9771 45.0319C50.2133 44.1488 48.0085 44.1488 46.6856 45.9149C45.3627 47.2395 44.9218 49.4472 45.8037 51.2134L87.6949 122.301L4.79443 120.976C2.58963 120.976 0.825792 122.301 0.384833 124.067C-0.0561274 125.833 0.825792 128.041 2.58963 128.924L74.9071 169.545L2.58963 209.725C0.825792 210.608 -0.0561274 212.815 0.384833 214.582C0.825792 216.348 2.58963 218.114 4.79443 217.672L87.6949 216.348L44.9218 287.435C44.0399 289.201 44.0399 291.409 45.8037 292.733C47.1266 294.058 49.3314 294.5 51.0952 293.617L122.09 250.788L120.767 333.796C120.767 336.004 122.09 337.77 123.854 338.212C125.617 338.653 127.822 337.77 128.704 336.004L169.272 263.592L209.4 336.004C210.282 337.329 211.605 338.212 213.368 338.212C213.809 338.212 214.25 338.212 214.691 338.212C216.455 337.77 217.778 336.004 217.778 333.796L216.455 250.788L287.45 293.617C289.214 294.5 291.418 294.5 292.741 292.733C294.064 291.409 294.505 289.201 293.623 287.435L250.85 216.348L333.75 217.672C335.955 217.672 337.278 216.348 338.16 214.582C338.601 212.815 337.719 210.608 335.955 209.725L263.638 169.545L335.955 129.365C337.719 128.041 338.601 126.274 338.16 124.067ZM252.173 165.571C250.85 166.454 249.968 167.779 249.968 169.545C249.968 171.311 250.85 172.636 252.173 173.519L316.112 209.283L242.913 207.959C241.59 207.959 239.826 208.842 238.944 210.166C238.062 211.491 238.062 213.257 238.944 214.582L276.426 277.28L213.809 239.749C212.487 238.866 210.723 238.866 209.4 239.749C208.077 240.191 207.195 241.515 207.195 243.281L208.518 316.576L172.8 252.554C171.918 251.229 170.595 250.346 168.832 250.346C167.068 250.346 165.745 251.229 164.863 252.554L130.027 316.576L131.35 243.281C131.35 241.515 130.468 240.191 129.145 239.308C127.822 238.425 126.058 238.425 124.736 239.308L61.6783 277.28L99.1598 214.582C100.042 213.257 100.042 211.491 99.1598 210.166C98.2779 208.842 96.955 207.959 95.1912 207.959L21.9919 209.283L85.9311 173.519C87.2539 172.636 88.1359 171.311 88.1359 169.545C88.1359 167.779 87.2539 166.454 85.9311 165.571L21.9919 129.807L95.6322 131.131C97.396 131.131 98.7189 130.248 99.6008 128.924C100.483 127.599 100.483 125.833 99.6008 124.508L61.6783 61.8102L124.295 99.3408C125.617 100.224 127.381 100.224 128.704 99.3408C130.027 98.4577 130.909 97.1331 130.909 95.367L129.586 22.072L165.304 86.0947C167.068 88.7439 171.477 88.7439 172.8 86.0947L208.518 22.072L207.195 95.367C207.195 97.1331 208.077 98.4577 209.4 99.3408C210.723 100.224 212.487 100.224 213.809 99.3408L276.426 61.8102L238.944 124.508C238.062 125.833 238.062 127.599 238.944 128.924C239.826 130.248 241.149 131.131 242.913 131.131L316.112 129.807L252.173 165.571Z" fill="#BBE189"/>
</svg>
