<svg width="81" height="81" viewBox="0 0 81 81" fill="none" xmlns="http://www.w3.org/2000/svg">
<path d="M40.7692 79.0676C62.0109 79.0676 79.2307 61.8478 79.2307 40.6061C79.2307 19.3643 62.0109 2.14453 40.7692 2.14453C19.5274 2.14453 2.30762 19.3643 2.30762 40.6061C2.30762 61.8478 19.5274 79.0676 40.7692 79.0676Z" fill="#6666B3"/>
<path fill-rule="evenodd" clip-rule="evenodd" d="M21.1076 26.072C20.564 26.6156 20.2563 27.3643 20.2563 28.1335V53.0669C20.2563 53.8361 20.564 54.5848 21.1076 55.1284C21.6512 55.672 22.3999 55.9797 23.1692 55.9797H58.3589C59.1281 55.9797 59.8769 55.672 60.4204 55.1284C60.964 54.5848 61.2717 53.8361 61.2717 53.0669V28.1335C61.2717 27.3643 60.964 26.6156 60.4204 26.072C59.8769 25.5284 59.1281 25.2207 58.3589 25.2207H23.1794C22.4102 25.2207 21.6615 25.5284 21.1179 26.072H21.1076ZM23.6717 30.7899V52.5643H57.8563V30.7899L41.8769 45.3233C41.2512 45.8976 40.2871 45.8976 39.6512 45.3233L23.6717 30.7899ZM55.1487 28.6361H26.3897L39.8769 40.8925C40.3897 41.354 41.1589 41.354 41.6717 40.8925L55.1589 28.6361H55.1487Z" fill="#F1F1F1"/>
</svg>
