<svg width="81" height="81" viewBox="0 0 81 81" fill="none" xmlns="http://www.w3.org/2000/svg">
<path d="M40.5895 79.0676C61.8312 79.0676 79.051 61.8478 79.051 40.6061C79.051 19.3643 61.8312 2.14453 40.5895 2.14453C19.3477 2.14453 2.12793 19.3643 2.12793 40.6061C2.12793 61.8478 19.3477 79.0676 40.5895 79.0676Z" fill="#6666B3"/>
<path fill-rule="evenodd" clip-rule="evenodd" d="M20.0767 28.2989C20.0767 23.7655 23.7485 20.0938 28.2818 20.0938H52.8972C57.4305 20.0938 61.1023 23.7655 61.1023 28.2989V52.9143C61.1023 57.4476 57.4305 61.1194 52.8972 61.1194H28.2818C23.7485 61.1194 20.0767 57.4476 20.0767 52.9143V28.2989ZM28.2818 24.1963C26.0151 24.1963 24.1792 26.0322 24.1792 28.2989V52.9143C24.1792 55.1809 26.0151 57.0168 28.2818 57.0168H52.8972C55.1638 57.0168 56.9997 55.1809 56.9997 52.9143V28.2989C56.9997 26.0322 55.1638 24.1963 52.8972 24.1963H28.2818ZM40.5895 34.4527C37.1946 34.4527 34.4356 37.2117 34.4356 40.6066C34.4356 44.0014 37.1946 46.7604 40.5895 46.7604C43.9844 46.7604 46.7433 44.0014 46.7433 40.6066C46.7433 37.2117 43.9844 34.4527 40.5895 34.4527ZM30.3331 40.6066C30.3331 34.945 34.9279 30.3502 40.5895 30.3502C46.251 30.3502 50.8459 34.945 50.8459 40.6066C50.8459 46.2681 46.251 50.863 40.5895 50.863C34.9279 50.863 30.3331 46.2681 30.3331 40.6066ZM51.8715 32.4014C53.5741 32.4014 54.9485 31.0271 54.9485 29.3245C54.9485 27.622 53.5741 26.2476 51.8715 26.2476C50.169 26.2476 48.7946 27.622 48.7946 29.3245C48.7946 31.0271 50.169 32.4014 51.8715 32.4014Z" fill="#F1F1F1"/>
</svg>
