<svg width="81" height="81" viewBox="0 0 81 81" fill="none" xmlns="http://www.w3.org/2000/svg">
<path d="M40.923 79.0676C62.1647 79.0676 79.3845 61.8478 79.3845 40.6061C79.3845 19.3643 62.1647 2.14453 40.923 2.14453C19.6812 2.14453 2.46143 19.3643 2.46143 40.6061C2.46143 61.8478 19.6812 79.0676 40.923 79.0676Z" fill="#6666B3"/>
<path d="M57.641 20.0917H23.4154C22.9744 20.0712 22.5334 20.1327 22.1128 20.2866C21.6923 20.4404 21.3128 20.6661 20.9846 20.9635C20.6564 21.2609 20.3898 21.6199 20.2052 22.0199C20.0205 22.4199 19.9077 22.8507 19.8872 23.2917V57.5994C19.918 58.5225 20.2872 59.4045 20.9436 60.0507C21.6 60.7071 22.4718 61.0866 23.3949 61.1071H57.6205C58.5231 61.0661 59.3641 60.6763 59.9795 60.0199C60.5949 59.3635 60.9231 58.4917 60.9026 57.5892V23.302C60.9026 22.8712 60.8308 22.4507 60.6667 22.0507C60.5026 21.6507 60.2564 21.2917 59.9487 20.9943C59.641 20.6968 59.2718 20.4609 58.8718 20.3071C58.4718 20.1533 58.041 20.0815 57.6103 20.102L57.641 20.0917ZM32.718 54.2968H26.7487V36.0199H32.718V54.2968ZM29.877 33.2507C29.4564 33.2609 29.0462 33.1892 28.6564 33.0353C28.2667 32.8815 27.918 32.6456 27.6205 32.3584C27.3231 32.0609 27.0975 31.7122 26.9436 31.3225C26.7898 30.9327 26.7282 30.5225 26.7385 30.102C26.718 29.6815 26.7898 29.2609 26.9436 28.8712C27.0975 28.4815 27.3334 28.1225 27.6308 27.8251C27.9282 27.5276 28.2872 27.302 28.6872 27.1481C29.077 26.9943 29.4975 26.9327 29.9282 26.9533C30.3487 26.943 30.759 27.0148 31.1487 27.1686C31.5385 27.3225 31.8872 27.5584 32.1846 27.8456C32.4821 28.143 32.7077 28.4917 32.8616 28.8815C33.0154 29.2712 33.077 29.6815 33.0667 30.102C33.0872 30.5225 33.0154 30.943 32.8616 31.3327C32.7077 31.7225 32.4718 32.0815 32.1744 32.3789C31.8769 32.6763 31.518 32.902 31.118 33.0558C30.7282 33.2097 30.3077 33.2712 29.877 33.2507ZM54.1026 54.2968H48.1026V44.2968C48.1026 41.9174 47.2616 40.2763 45.1282 40.2763C44.4718 40.2763 43.8257 40.4917 43.2821 40.8815C42.7487 41.2712 42.3385 41.8045 42.1231 42.4302C41.959 42.902 41.8872 43.3943 41.918 43.8866V54.2968H36.0205V36.0199H41.918V38.584C42.4411 37.6199 43.2205 36.8199 44.1744 36.2763C45.1282 35.7327 46.2052 35.4558 47.3026 35.4866C51.1693 35.4866 54.0923 38.0507 54.0923 43.5071V54.2968H54.1026Z" fill="#F1F1F1"/>
</svg>
