<svg width="81" height="81" viewBox="0 0 81 81" fill="none" xmlns="http://www.w3.org/2000/svg">
<path d="M40.7433 79.0676C61.985 79.0676 79.2048 61.8478 79.2048 40.6061C79.2048 19.3643 61.985 2.14453 40.7433 2.14453C19.5016 2.14453 2.28174 19.3643 2.28174 40.6061C2.28174 61.8478 19.5016 79.0676 40.7433 79.0676Z" fill="#6666B3"/>
<path d="M58.4869 41.016C58.3843 41.1186 58.2818 41.2212 58.1792 41.3237L33.4613 55.6827C33.1536 55.8878 32.8459 55.8878 32.5382 55.6827C32.2305 55.4776 32.1279 55.1699 32.1279 54.8622V26.3494C32.1279 26.0417 32.3331 25.734 32.5382 25.5288C32.8459 25.3237 33.1536 25.3237 33.4613 25.5288L58.1792 39.7853C58.5895 40.0929 58.692 40.6058 58.4869 41.016Z" fill="#F1F1F1"/>
</svg>
